<svg width="22" height="22" viewBox="0 0 22 22" fill="none" xmlns="http://www.w3.org/2000/svg">
<path d="M21.501 11.2332C21.501 10.3699 21.4296 9.73987 21.2748 9.08655H11.2153V12.9832H17.12C17.001 13.9515 16.3582 15.4099 14.9296 16.3898L14.9096 16.5203L18.0902 18.935L18.3106 18.9565C20.3343 17.1249 21.501 14.4298 21.501 11.2332Z" fill="#4285F4"/>
<path d="M11.2147 21.5C14.1075 21.5 16.5361 20.5666 18.3099 18.9567L14.929 16.3899C14.0242 17.0083 12.8099 17.4399 11.2147 17.4399C8.38142 17.4399 5.97669 15.6083 5.11947 13.0766L4.99382 13.0871L1.68656 15.5954L1.64331 15.7132C3.40519 19.1433 7.02423 21.5 11.2147 21.5Z" fill="#34A853"/>
<path d="M5.11997 13.0767C4.89379 12.4233 4.76289 11.7233 4.76289 11C4.76289 10.2766 4.89379 9.57663 5.10807 8.92331L5.10208 8.78417L1.75337 6.23553L1.64381 6.28661C0.917647 7.70996 0.500977 9.30832 0.500977 11C0.500977 12.6916 0.917647 14.2899 1.64381 15.7133L5.11997 13.0767Z" fill="#FBBC05"/>
<path d="M11.2148 4.55997C13.2267 4.55997 14.5838 5.41163 15.3576 6.12335L18.3814 3.23C16.5243 1.53834 14.1076 0.5 11.2148 0.5C7.02426 0.5 3.4052 2.85665 1.64331 6.28662L5.10759 8.92332C5.97672 6.39166 8.38146 4.55997 11.2148 4.55997Z" fill="#EB4335"/>
</svg>
